irrational-serif.ufo
<glyph name="exclam" format="1">
  <advance width="271"/>
  <unicode hex="0021"/>
  <outline>
    <contour>
      <point x="165" y="225" type="line"/>
      <point x="256" y="700" type="line"/>
      <point x="168" y="700" type="line"/>
      <point x="168" y="700"/>
      <point x="141" y="640"/>
      <point x="15" y="640" type="curve"/>
      <point x="15" y="579" type="line"/>
      <point x="105" y="225" type="line"/>
    </contour>
    <contour>
      <point x="228" y="79" type="curve" smooth="yes"/>
      <point x="228" y="131"/>
      <point x="187" y="172"/>
      <point x="136" y="172" type="curve" smooth="yes"/>
      <point x="84" y="172"/>
      <point x="43" y="131"/>
      <point x="43" y="79" type="curve" smooth="yes"/>
      <point x="43" y="28"/>
      <point x="84" y="-13"/>
      <point x="136" y="-13" type="curve" smooth="yes"/>
      <point x="187" y="-13"/>
      <point x="228" y="28"/>
    </contour>
  </outline>
</glyph>
<glyph name="quotesingle" format="1">
  <advance width="152"/>
  <unicode hex="0027"/>
  <outline>
    <contour>
      <point x="163.0" y="605.0" type="curve" smooth="yes"/>
      <point x="163.0" y="656.0"/>
      <point x="122.0" y="698.0"/>
      <point x="71.0" y="698.0" type="curve" smooth="yes"/>
      <point x="19.0" y="698.0"/>
      <point x="-22.0" y="655.0"/>
      <point x="-22.0" y="604.0" type="curve" smooth="yes"/>
      <point x="-22.0" y="564.0"/>
      <point x="3.0" y="531.0"/>
      <point x="38.0" y="516.0" type="curve"/>
      <point x="38.0" y="516.0" type="line"/>
      <point x="38.0" y="500.0"/>
      <point x="13.0" y="473.0"/>
      <point x="-22.0" y="471.0" type="curve" smooth="yes"/>
      <point x="-22.0" y="471.0"/>
      <point x="-22.0" y="435.0"/>
      <point x="-22.0" y="435.0" type="curve"/>
      <point x="90.0" y="435.0"/>
      <point x="163.0" y="518.0"/>
      <point x="163.0" y="605.0" type="curve"/>
      <point x="163.0" y="605.0"/>
      <point x="163.0" y="605.0"/>
    </contour>
  </outline>
</glyph>
<glyph name="parenleft" format="1">
  <advance width="263"/>
  <unicode hex="0028"/>
  <outline>
    <contour>
      <point x="248" y="663" type="line"/>
      <point x="248" y="663"/>
      <point x="68" y="518"/>
      <point x="68" y="260" type="curve" smooth="yes"/>
      <point x="68" y="1"/>
      <point x="247" y="-197"/>
      <point x="247" y="-197" type="curve"/>
      <point x="207" y="-239" type="line"/>
      <point x="207" y="-239"/>
      <point x="15" y="0"/>
      <point x="15" y="260" type="curve" smooth="yes"/>
      <point x="15" y="519"/>
      <point x="207" y="700"/>
      <point x="207" y="700" type="curve"/>
    </contour>
  </outline>
</glyph>
<glyph name="parenright" format="1">
  <advance width="263"/>
  <unicode hex="0029"/>
  <outline>
    <contour>
      <point x="15" y="663" type="curve"/>
      <point x="56" y="700" type="line"/>
      <point x="56" y="700"/>
      <point x="248" y="519"/>
      <point x="248" y="260" type="curve" smooth="yes"/>
      <point x="248" y="0"/>
      <point x="56" y="-239"/>
      <point x="56" y="-239" type="curve"/>
      <point x="16" y="-197" type="line"/>
      <point x="16" y="-197"/>
      <point x="195" y="1"/>
      <point x="195" y="260" type="curve" smooth="yes"/>
      <point x="195" y="518"/>
      <point x="15" y="663"/>
    </contour>
  </outline>
</glyph>
<glyph name="comma" format="1">
  <advance width="215"/>
  <unicode hex="002C"/>
  <outline>
    <contour>
      <point x="200" y="77" type="curve" smooth="yes"/>
      <point x="200" y="128"/>
      <point x="159" y="170"/>
      <point x="108" y="170" type="curve" smooth="yes"/>
      <point x="56" y="170"/>
      <point x="15" y="127"/>
      <point x="15" y="76" type="curve" smooth="yes"/>
      <point x="15" y="36"/>
      <point x="40" y="3"/>
      <point x="75" y="-12" type="curve"/>
      <point x="75" y="-12" type="line"/>
      <point x="75" y="-28"/>
      <point x="50" y="-55"/>
      <point x="15" y="-57" type="curve" smooth="yes"/>
      <point x="15" y="-57"/>
      <point x="15" y="-93"/>
      <point x="15" y="-93" type="curve"/>
      <point x="127" y="-93"/>
      <point x="200" y="-10"/>
      <point x="200" y="77" type="curve"/>
      <point x="200" y="77"/>
      <point x="200" y="77"/>
    </contour>
  </outline>
</glyph>
<glyph name="hyphen" format="1">
  <advance width="293"/>
  <unicode hex="002D"/>
  <outline>
    <contour>
      <point x="15" y="286" type="line"/>
      <point x="278" y="286" type="line"/>
      <point x="278" y="225" type="line"/>
      <point x="15" y="225" type="line"/>
    </contour>
  </outline>
</glyph>
<glyph name="period" format="1">
  <advance width="215"/>
  <unicode hex="002E"/>
  <outline>
    <contour>
      <point x="200" y="79" type="curve" smooth="yes"/>
      <point x="200" y="131"/>
      <point x="159" y="172"/>
      <point x="107" y="172" type="curve" smooth="yes"/>
      <point x="56" y="172"/>
      <point x="15" y="131"/>
      <point x="15" y="79" type="curve" smooth="yes"/>
      <point x="15" y="28"/>
      <point x="56" y="-13"/>
      <point x="107" y="-13" type="curve" smooth="yes"/>
      <point x="159" y="-13"/>
      <point x="200" y="28"/>
    </contour>
  </outline>
</glyph>
<glyph name="colon" format="1">
  <advance width="500"/>
  <unicode hex="003A"/>
  <outline>
    <contour>
      <point x="348" y="80" type="curve" smooth="yes"/>
      <point x="348" y="132"/>
      <point x="307" y="173"/>
      <point x="255" y="173" type="curve" smooth="yes"/>
      <point x="204" y="173"/>
      <point x="163" y="132"/>
      <point x="163" y="80" type="curve" smooth="yes"/>
      <point x="163" y="29"/>
      <point x="204" y="-12"/>
      <point x="255" y="-12" type="curve" smooth="yes"/>
      <point x="307" y="-12"/>
      <point x="348" y="29"/>
    </contour>
    <contour>
      <point x="348" y="369" type="curve" smooth="yes"/>
      <point x="348" y="421"/>
      <point x="307" y="462"/>
      <point x="255" y="462" type="curve" smooth="yes"/>
      <point x="204" y="462"/>
      <point x="163" y="421"/>
      <point x="163" y="369" type="curve" smooth="yes"/>
      <point x="163" y="318"/>
      <point x="204" y="277"/>
      <point x="255" y="277" type="curve" smooth="yes"/>
      <point x="307" y="277"/>
      <point x="348" y="318"/>
    </contour>
  </outline>
</glyph>
<glyph name="semicolon" format="1">
  <advance width="215"/>
  <unicode hex="003B"/>
  <outline>
    <contour>
      <point x="200.0" y="77.0" type="curve" smooth="yes"/>
      <point x="200.0" y="128.0"/>
      <point x="159.0" y="170.0"/>
      <point x="108.0" y="170.0" type="curve" smooth="yes"/>
      <point x="56.0" y="170.0"/>
      <point x="15.0" y="127.0"/>
      <point x="15.0" y="76.0" type="curve" smooth="yes"/>
      <point x="15.0" y="36.0"/>
      <point x="40.0" y="3.0"/>
      <point x="75.0" y="-12.0" type="curve"/>
      <point x="75.0" y="-12.0" type="line"/>
      <point x="75.0" y="-28.0"/>
      <point x="50.0" y="-55.0"/>
      <point x="15.0" y="-57.0" type="curve" smooth="yes"/>
      <point x="15.0" y="-57.0"/>
      <point x="15.0" y="-93.0"/>
      <point x="15.0" y="-93.0" type="curve"/>
      <point x="127.0" y="-93.0"/>
      <point x="200.0" y="-10.0"/>
      <point x="200.0" y="77.0" type="curve"/>
      <point x="200.0" y="77.0"/>
      <point x="200.0" y="77.0"/>
    </contour>
    <contour>
      <point x="200" y="367" type="curve" smooth="yes"/>
      <point x="200" y="419"/>
      <point x="159" y="460"/>
      <point x="107" y="460" type="curve" smooth="yes"/>
      <point x="56" y="460"/>
      <point x="15" y="419"/>
      <point x="15" y="367" type="curve" smooth="yes"/>
      <point x="15" y="316"/>
      <point x="56" y="275"/>
      <point x="107" y="275" type="curve" smooth="yes"/>
      <point x="159" y="275"/>
      <point x="200" y="316"/>
    </contour>
  </outline>
</glyph>
<glyph name="question" format="1">
  <advance width="480"/>
  <unicode hex="003F"/>
  <outline>
    <contour>
      <point x="196.0" y="79.0" type="curve" smooth="yes"/>
      <point x="196.0" y="131.0"/>
      <point x="159.0" y="173.0"/>
      <point x="107.0" y="173.0" type="curve" smooth="yes"/>
      <point x="56.0" y="173.0"/>
      <point x="15.0" y="132.0"/>
      <point x="15.0" y="80.0" type="curve" smooth="yes"/>
      <point x="15.0" y="29.0"/>
      <point x="52.0" y="-13.0"/>
      <point x="103.0" y="-13.0" type="curve" smooth="yes"/>
      <point x="155.0" y="-13.0"/>
      <point x="196.0" y="28.0"/>
    </contour>
    <contour>
      <point x="232.0" y="700.0" type="curve" smooth="yes"/>
      <point x="63.0" y="699.0"/>
      <point x="22.0" y="627.0"/>
      <point x="22.0" y="558.0" type="curve" smooth="yes"/>
      <point x="22.0" y="533.0"/>
      <point x="35.0" y="489.0"/>
      <point x="100.0" y="489.0" type="curve" smooth="yes"/>
      <point x="130.0" y="489.0"/>
      <point x="169.0" y="514.0"/>
      <point x="169.0" y="555.0" type="curve" smooth="yes"/>
      <point x="169.0" y="597.0"/>
      <point x="132.0" y="621.0"/>
      <point x="103.0" y="621.0" type="curve" smooth="yes"/>
      <point x="69.0" y="621.0"/>
      <point x="37.0" y="596.0"/>
      <point x="37.0" y="559.0" type="curve"/>
      <point x="37.0" y="620.0"/>
      <point x="84.0" y="652.0"/>
      <point x="150.0" y="652.0" type="curve" smooth="yes"/>
      <point x="221.0" y="652.0"/>
      <point x="238.0" y="592.0"/>
      <point x="238.0" y="534.0" type="curve" smooth="yes"/>
      <point x="238.0" y="387.0" type="line" smooth="yes"/>
      <point x="238.0" y="365.0"/>
      <point x="220.0" y="348.0"/>
      <point x="188.0" y="348.0" type="curve" smooth="yes"/>
      <point x="154.0" y="348.0"/>
      <point x="137.0" y="359.0"/>
      <point x="137.0" y="395.0" type="curve"/>
      <point x="77.0" y="395.0" type="line"/>
      <point x="77.0" y="226.0" type="line"/>
      <point x="137.0" y="226.0" type="line"/>
      <point x="137.0" y="328.0" type="line"/>
      <point x="159.0" y="321.0"/>
      <point x="189.0" y="317.0"/>
      <point x="225.0" y="317.0" type="curve" smooth="yes"/>
      <point x="358.0" y="317.0"/>
      <point x="465.0" y="402.0"/>
      <point x="465.0" y="508.0" type="curve" smooth="yes"/>
      <point x="465.0" y="602.0"/>
      <point x="389.0" y="701.0"/>
    </contour>
  </outline>
</glyph>
<glyph name="bracketleft" format="1">
  <advance width="230"/>
  <unicode hex="005B"/>
  <outline>
    <contour>
      <point x="15.0" y="700.0" type="line"/>
      <point x="15.0" y="-179.0" type="line"/>
      <point x="15.0" y="-179.0" type="line"/>
      <point x="15.0" y="-239.0" type="line"/>
      <point x="15.0" y="-239.0" type="line"/>
      <point x="215.0" y="-239.0" type="line"/>
      <point x="215.0" y="-179.0" type="line"/>
      <point x="75.0" y="-179.0" type="line"/>
      <point x="75.0" y="640.0" type="line"/>
      <point x="215.0" y="640.0" type="line"/>
      <point x="215.0" y="700.0" type="line"/>
      <point x="15.0" y="700.0" type="line"/>
    </contour>
  </outline>
</glyph>
<glyph name="backslash" format="1">
  <advance width="500"/>
  <unicode hex="005C"/>
  <outline>
    <contour>
      <point x="478" y="-239" type="line"/>
      <point x="137" y="700" type="line"/>
      <point x="78" y="700" type="line"/>
      <point x="419" y="-239" type="line"/>
    </contour>
  </outline>
</glyph>
<glyph name="a" format="1">
  <advance width="631"/>
  <unicode hex="0061"/>
  <outline>
    <contour>
      <point x="305" y="123" type="line"/>
      <point x="305" y="98"/>
      <point x="291" y="70"/>
      <point x="272" y="70" type="curve" smooth="yes"/>
      <point x="255" y="70"/>
      <point x="244" y="88"/>
      <point x="244" y="117" type="curve" smooth="yes"/>
      <point x="244" y="157"/>
      <point x="259" y="178"/>
      <point x="305" y="178" type="curve"/>
    </contour>
    <contour>
      <point x="301.0" y="51.0" type="curve"/>
      <point x="319.0" y="14.0"/>
      <point x="360.0" y="-13.0"/>
      <point x="476.0" y="-13.0" type="curve" smooth="yes"/>
      <point x="550.0" y="-13.0"/>
      <point x="616.0" y="14.0"/>
      <point x="616.0" y="112.0" type="curve"/>
      <point x="577.0" y="112.0" type="line"/>
      <point x="577.0" y="47.0"/>
      <point x="541.0" y="47.0"/>
      <point x="541.0" y="79.0" type="curve" smooth="yes"/>
      <point x="541.0" y="116.0" type="line"/>
      <point x="541.0" y="222.0" type="line" smooth="yes"/>
      <point x="541.0" y="341.0"/>
      <point x="432.0" y="461.0"/>
      <point x="249.0" y="461.0" type="curve" smooth="yes"/>
      <point x="88.0" y="461.0"/>
      <point x="25.0" y="403.0"/>
      <point x="25.0" y="317.0" type="curve" smooth="yes"/>
      <point x="25.0" y="255.0"/>
      <point x="77.0" y="203.0"/>
      <point x="144.0" y="203.0" type="curve" smooth="yes"/>
      <point x="207.0" y="203.0"/>
      <point x="256.0" y="248.0"/>
      <point x="256.0" y="308.0" type="curve" smooth="yes"/>
      <point x="256.0" y="363.0"/>
      <point x="206.0" y="409.0"/>
      <point x="151.0" y="409.0" type="curve" smooth="yes"/>
      <point x="130.0" y="409.0"/>
      <point x="115.0" y="402.0"/>
      <point x="115.0" y="402.0" type="curve"/>
      <point x="115.0" y="402.0"/>
      <point x="128.0" y="417.0"/>
      <point x="159.0" y="417.0" type="curve" smooth="yes"/>
      <point x="225.0" y="417.0"/>
      <point x="277.0" y="365.0"/>
      <point x="277.0" y="302.0" type="curve" smooth="yes"/>
      <point x="277.0" y="225.0"/>
      <point x="211.0" y="187.0"/>
      <point x="151.0" y="187.0" type="curve" smooth="yes"/>
      <point x="113.0" y="187.0"/>
      <point x="82.0" y="198.0"/>
      <point x="58.0" y="209.0" type="curve"/>
      <point x="20.0" y="179.0"/>
      <point x="15.0" y="141.0"/>
      <point x="15.0" y="114.0" type="curve" smooth="yes"/>
      <point x="15.0" y="64.0"/>
      <point x="55.0" y="-13.0"/>
      <point x="151.0" y="-13.0" type="curve" smooth="yes"/>
      <point x="237.0" y="-13.0"/>
      <point x="281.0" y="14.0"/>
    </contour>
  </outline>
</glyph>
<glyph name="b" format="1">
  <advance width="651"/>
  <unicode hex="0062"/>
  <outline>
    <contour>
      <point x="440.0" y="461.0" type="curve" smooth="yes"/>
      <point x="379.0" y="461.0"/>
      <point x="333.0" y="427.0"/>
      <point x="306.0" y="396.0" type="curve"/>
      <point x="306.0" y="701.0" type="line"/>
      <point x="218.0" y="701.0" type="line"/>
      <point x="218.0" y="701.0"/>
      <point x="151.0" y="641.0"/>
      <point x="25.0" y="641.0" type="curve"/>
      <point x="25" y="580" type="line" smooth="yes"/>
      <point x="65.0" y="580.0" type="line"/>
      <point x="65.0" y="60.0" type="line"/>
      <point x="25" y="60" type="line"/>
      <point x="25" y="0" type="line"/>
      <point x="306.0" y="0.0" type="line"/>
      <point x="306.0" y="51.0" type="line"/>
      <point x="341.0" y="11.0"/>
      <point x="388.0" y="-13.0"/>
      <point x="440.0" y="-13.0" type="curve" smooth="yes"/>
      <point x="548.0" y="-13.0"/>
      <point x="636.0" y="93.0"/>
      <point x="636.0" y="224.0" type="curve" smooth="yes"/>
      <point x="636.0" y="355.0"/>
      <point x="548.0" y="461.0"/>
    </contour>
    <contour>
      <point x="365.0" y="135.0" type="line" smooth="yes"/>
      <point x="365.0" y="104.0"/>
      <point x="347.0" y="94.0"/>
      <point x="337.0" y="94.0" type="curve" smooth="yes"/>
      <point x="318.0" y="94.0"/>
      <point x="306.0" y="107.0"/>
      <point x="306.0" y="134.0" type="curve" smooth="yes"/>
      <point x="306.0" y="313.0" type="line" smooth="yes"/>
      <point x="306.0" y="344.0"/>
      <point x="324.0" y="354.0"/>
      <point x="334.0" y="354.0" type="curve" smooth="yes"/>
      <point x="353.0" y="354.0"/>
      <point x="365.0" y="340.0"/>
      <point x="365.0" y="313.0" type="curve" smooth="yes"/>
    </contour>
  </outline>
</glyph>
<glyph name="c" format="1">
  <advance width="569.0"/>
  <unicode hex="0063"/>
  <outline>
    <contour>
      <point x="280" y="281" type="line"/>
      <point x="280" y="364"/>
      <point x="337" y="414"/>
      <point x="403" y="414" type="curve" smooth="yes"/>
      <point x="433" y="414"/>
      <point x="448" y="400"/>
      <point x="448" y="400" type="curve"/>
      <point x="448" y="400"/>
      <point x="432" y="406"/>
      <point x="411" y="406" type="curve" smooth="yes"/>
      <point x="355" y="406"/>
      <point x="304" y="358"/>
      <point x="304" y="301" type="curve" smooth="yes"/>
      <point x="304" y="239"/>
      <point x="354" y="192"/>
      <point x="418" y="192" type="curve" smooth="yes"/>
      <point x="485" y="192"/>
      <point x="527" y="246"/>
      <point x="527" y="311" type="curve" smooth="yes"/>
      <point x="527" y="373"/>
      <point x="465" y="462"/>
      <point x="280" y="462" type="curve"/>
      <point x="107" y="462"/>
      <point x="23.0" y="341.0"/>
      <point x="23.0" y="225.0" type="curve" smooth="yes"/>
      <point x="23.0" y="94.0"/>
      <point x="133.0" y="-13.0"/>
      <point x="280.0" y="-13.0" type="curve" smooth="yes"/>
      <point x="445.0" y="-13.0"/>
      <point x="533" y="59"/>
      <point x="533" y="138" type="curve"/>
      <point x="492" y="138" type="line"/>
      <point x="492" y="59"/>
      <point x="280" y="31"/>
      <point x="280" y="140" type="curve" smooth="yes"/>
    </contour>
  </outline>
</glyph>
<glyph name="d" format="1">
  <advance width="650"/>
  <unicode hex="0064"/>
  <outline>
    <contour>
      <point x="286" y="313" type="line" smooth="yes"/>
      <point x="286" y="340"/>
      <point x="298" y="354"/>
      <point x="317" y="354" type="curve" smooth="yes"/>
      <point x="327" y="354"/>
      <point x="345" y="344"/>
      <point x="345" y="313" type="curve" smooth="yes"/>
      <point x="345" y="134" type="line" smooth="yes"/>
      <point x="345" y="107"/>
      <point x="333" y="94"/>
      <point x="314" y="94" type="curve" smooth="yes"/>
      <point x="304" y="94"/>
      <point x="286" y="104"/>
      <point x="286" y="135" type="curve" smooth="yes"/>
    </contour>
    <contour>
      <point x="585" y="701" type="line"/>
      <point x="498" y="701" type="line"/>
      <point x="498" y="701"/>
      <point x="431" y="641"/>
      <point x="305" y="641" type="curve"/>
      <point x="305" y="580" type="line"/>
      <point x="345" y="580" type="line"/>
      <point x="345" y="396" type="line"/>
      <point x="318" y="427"/>
      <point x="272" y="461"/>
      <point x="211" y="461" type="curve" smooth="yes"/>
      <point x="103" y="461"/>
      <point x="15" y="355"/>
      <point x="15" y="224" type="curve" smooth="yes"/>
      <point x="15" y="93"/>
      <point x="103" y="-13"/>
      <point x="211" y="-13" type="curve" smooth="yes"/>
      <point x="263" y="-13"/>
      <point x="310" y="11"/>
      <point x="345" y="51" type="curve"/>
      <point x="345" y="0" type="line"/>
      <point x="625" y="0" type="line"/>
      <point x="625" y="60" type="line"/>
      <point x="585" y="60" type="line"/>
    </contour>
  </outline>
</glyph>
<glyph name="e" format="1">
  <advance width="596.0"/>
  <unicode hex="0065"/>
  <outline>
    <contour>
      <point x="275.0" y="379.0" type="line" smooth="yes"/>
      <point x="275.0" y="406.0"/>
      <point x="293.0" y="415.0"/>
      <point x="302.0" y="415.0" type="curve" smooth="yes"/>
      <point x="319.0" y="415.0"/>
      <point x="328.0" y="406.0"/>
      <point x="328.0" y="379.0" type="curve" smooth="yes"/>
      <point x="328" y="225" type="line"/>
      <point x="275" y="225" type="line"/>
    </contour>
    <contour>
      <point x="577.0" y="187.0" type="line"/>
      <point x="577.0" y="352.0"/>
      <point x="452.0" y="460.0"/>
      <point x="302.0" y="460.0" type="curve" smooth="yes"/>
      <point x="137.0" y="460.0"/>
      <point x="18.0" y="362.823529412"/>
      <point x="18.0" y="224.0" type="curve" smooth="yes"/>
      <point x="18.0" y="87.0"/>
      <point x="151.0" y="-13.0"/>
      <point x="310.0" y="-13.0" type="curve" smooth="yes"/>
      <point x="452.0" y="-13.0"/>
      <point x="550.0" y="60.0"/>
      <point x="577.0" y="133.0" type="curve"/>
      <point x="506.0" y="133.0" type="line"/>
      <point x="452.0" y="41.0"/>
      <point x="373.0" y="51.0"/>
      <point x="346.0" y="51.0" type="curve" smooth="yes"/>
      <point x="319.0" y="51.0"/>
      <point x="275.0" y="69.0"/>
      <point x="275.0" y="96.0" type="curve" smooth="yes"/>
      <point x="275.0" y="187.0" type="line"/>
    </contour>
  </outline>
</glyph>
<glyph name="f" format="1">
  <advance width="412.0"/>
  <unicode hex="0066"/>
  <outline>
    <contour>
      <point x="305.0" y="700" type="curve" smooth="yes"/>
      <point x="127.0" y="700"/>
      <point x="67.0" y="579.0"/>
      <point x="67.0" y="461.0" type="curve"/>
      <point x="18.0" y="461.0" type="line"/>
      <point x="18.0" y="400.0" type="line"/>
      <point x="68.0" y="400.0" type="line"/>
      <point x="68.0" y="61.0" type="line"/>
      <point x="18.0" y="61.0" type="line"/>
      <point x="18.0" y="0.0" type="line"/>
      <point x="67.0" y="0.0" type="line"/>
      <point x="306.0" y="0.0" type="line"/>
      <point x="366.0" y="0.0" type="line"/>
      <point x="366.0" y="61.0" type="line"/>
      <point x="305.0" y="61.0" type="line"/>
      <point x="305.0" y="441" type="line"/>
      <point x="305.0" y="441"/>
      <point x="260.0" y="473"/>
      <point x="260.0" y="534" type="curve" smooth="yes"/>
      <point x="260.0" y="599"/>
      <point x="314.0" y="653"/>
      <point x="380.0" y="653" type="curve" smooth="yes"/>
      <point x="410.0" y="653"/>
      <point x="425.0" y="639"/>
      <point x="425.0" y="639" type="curve"/>
      <point x="425.0" y="639"/>
      <point x="409.0" y="645"/>
      <point x="388.0" y="645" type="curve" smooth="yes"/>
      <point x="332.0" y="645"/>
      <point x="281.0" y="597"/>
      <point x="281.0" y="540" type="curve" smooth="yes"/>
      <point x="281.0" y="478"/>
      <point x="331.0" y="431"/>
      <point x="395.0" y="431" type="curve" smooth="yes"/>
      <point x="462.0" y="431"/>
      <point x="515.0" y="485"/>
      <point x="515.0" y="550" type="curve" smooth="yes"/>
      <point x="515.0" y="612"/>
      <point x="468.0" y="700"/>
    </contour>
  </outline>
</glyph>
<glyph name="g" format="1">
  <advance width="604.0"/>
  <unicode hex="0067"/>
  <outline>
    <contour>
      <point x="324.0" y="-226" type="curve" smooth="yes"/>
      <point x="476.0" y="-226"/>
      <point x="512.0" y="-163"/>
      <point x="512.0" y="-79" type="curve" smooth="yes"/>
      <point x="512.0" y="21"/>
      <point x="463.0" y="69"/>
      <point x="277.0" y="69" type="curve"/>
      <point x="103.0" y="69"/>
      <point x="119.0" y="97.0"/>
      <point x="123.0" y="110.0" type="curve" smooth="yes"/>
      <point x="127.0" y="122.0"/>
      <point x="138.0" y="116.0"/>
      <point x="138.0" y="116.0" type="curve"/>
      <point x="138.0" y="116.0"/>
      <point x="113.0" y="152.0"/>
      <point x="113.0" y="152.0" type="curve" smooth="yes"/>
      <point x="73.0" y="167.0"/>
      <point x="5.0" y="125.0"/>
      <point x="5.0" y="28.0" type="curve" smooth="yes"/>
      <point x="5.0" y="-43.0"/>
      <point x="36.0" y="-131.0"/>
      <point x="246.0" y="-131.0" type="curve"/>
      <point x="309.0" y="-131"/>
      <point x="358.0" y="-131"/>
      <point x="358.0" y="-157" type="curve" smooth="yes"/>
      <point x="358.0" y="-178"/>
      <point x="324.0" y="-175"/>
      <point x="324.0" y="-175" type="curve"/>
      <point x="324.0" y="-175"/>
      <point x="324.0" y="-226"/>
    </contour>
    <contour>
      <point x="268.0" y="161.0" type="line" smooth="yes"/>
      <point x="268.0" y="140.0"/>
      <point x="260.0" y="129.0"/>
      <point x="245.0" y="129.0" type="curve" smooth="yes"/>
      <point x="230.0" y="129.0"/>
      <point x="222.0" y="140.0"/>
      <point x="222.0" y="161.0" type="curve" smooth="yes"/>
      <point x="222.0" y="393.0" type="line" smooth="yes"/>
      <point x="222.0" y="414.0"/>
      <point x="231.0" y="424.0"/>
      <point x="245.0" y="424.0" type="curve" smooth="yes"/>
      <point x="260.0" y="424.0"/>
      <point x="268.0" y="414.0"/>
      <point x="268.0" y="393.0" type="curve" smooth="yes"/>
    </contour>
    <contour>
      <point x="328.0" y="447.0" type="curve"/>
      <point x="303.0" y="456.0"/>
      <point x="274.0" y="461.0"/>
      <point x="245.0" y="461.0" type="curve" smooth="yes"/>
      <point x="121.0" y="461.0"/>
      <point x="25.0" y="379.0"/>
      <point x="25.0" y="277.0" type="curve" smooth="yes"/>
      <point x="25.0" y="175.0"/>
      <point x="123.0" y="93.0"/>
      <point x="245.0" y="93.0" type="curve" smooth="yes"/>
      <point x="376.0" y="93.0"/>
      <point x="444.0" y="183.0"/>
      <point x="450.0" y="212.0" type="curve"/>
      <point x="450.0" y="212.0"/>
      <point x="376.0" y="245.0"/>
      <point x="376.0" y="316.0" type="curve" smooth="yes"/>
      <point x="376.0" y="373.0"/>
      <point x="423.0" y="420.0"/>
      <point x="481.0" y="420.0" type="curve" smooth="yes"/>
      <point x="507.0" y="420.0"/>
      <point x="520.0" y="407.0"/>
      <point x="520.0" y="407.0" type="curve"/>
      <point x="520.0" y="407.0"/>
      <point x="507.0" y="413.0"/>
      <point x="488.0" y="413.0" type="curve" smooth="yes"/>
      <point x="439.0" y="413.0"/>
      <point x="394.0" y="371.0"/>
      <point x="394.0" y="321.0" type="curve" smooth="yes"/>
      <point x="394.0" y="267.0"/>
      <point x="438.0" y="226.0"/>
      <point x="494.0" y="226.0" type="curve" smooth="yes"/>
      <point x="553.0" y="226.0"/>
      <point x="599.0" y="273.0"/>
      <point x="599.0" y="329.0" type="curve" smooth="yes"/>
      <point x="599.0" y="384.0"/>
      <point x="558.0" y="460.0"/>
      <point x="415.0" y="460.0" type="curve" smooth="yes"/>
      <point x="386.0" y="460.0"/>
      <point x="356.0" y="456.0"/>
    </contour>
  </outline>
</glyph>
<glyph name="h" format="1">
  <advance width="701"/>
  <unicode hex="0068"/>
  <outline>
    <contour>
      <point x="635.0" y="59.0" type="line"/>
      <point x="635.0" y="263.0" type="line" smooth="yes"/>
      <point x="635.0" y="394.0"/>
      <point x="548.0" y="461.0"/>
      <point x="439.0" y="461.0" type="curve" smooth="yes"/>
      <point x="379.0" y="461.0"/>
      <point x="333.0" y="432.0"/>
      <point x="306.0" y="401.0" type="curve"/>
      <point x="306.0" y="700.0" type="line"/>
      <point x="218.0" y="700.0" type="line"/>
      <point x="218.0" y="700.0"/>
      <point x="151.0" y="640.0"/>
      <point x="25.0" y="640.0" type="curve"/>
      <point x="25.0" y="579.0" type="line"/>
      <point x="65.0" y="579.0" type="line"/>
      <point x="65.0" y="59.0" type="line"/>
      <point x="25.0" y="59.0" type="line"/>
      <point x="25.0" y="0.0" type="line"/>
      <point x="306.0" y="0.0" type="line"/>
      <point x="306.0" y="0.0"/>
      <point x="306.0" y="329.0"/>
      <point x="306.0" y="329.0" type="curve" smooth="yes"/>
      <point x="306.0" y="360.0"/>
      <point x="321.0" y="369.0"/>
      <point x="337.0" y="369.0" type="curve" smooth="yes"/>
      <point x="352.0" y="369.0"/>
      <point x="366.0" y="356.0"/>
      <point x="366.0" y="329.0" type="curve"/>
      <point x="366.0" y="329.0"/>
      <point x="366.0" y="0.0"/>
      <point x="366.0" y="0.0" type="curve"/>
      <point x="675.0" y="0.0" type="line"/>
      <point x="675.0" y="59.0" type="line"/>
    </contour>
  </outline>
</glyph>
<glyph name="i" format="1">
  <advance width="361"/>
  <unicode hex="0069"/>
  <outline>
    <contour>
      <point x="301.0" y="400.0" type="line"/>
      <point x="20.0" y="401.0" type="line"/>
      <point x="20.0" y="340.0" type="line"/>
      <point x="60.0" y="340.0" type="line"/>
      <point x="60.0" y="60.0" type="line"/>
      <point x="20.0" y="60.0" type="line"/>
      <point x="20.0" y="0.0" type="line"/>
      <point x="341.0" y="0.0" type="line"/>
      <point x="341" y="60" type="line"/>
      <point x="301" y="60" type="line"/>
    </contour>
    <contour>
      <point x="299.0" y="581.0" type="curve" smooth="yes"/>
      <point x="299.0" y="647.0"/>
      <point x="246.0" y="700.0"/>
      <point x="180.0" y="700.0" type="curve" smooth="yes"/>
      <point x="114.0" y="700.0"/>
      <point x="60.0" y="647.0"/>
      <point x="60.0" y="581.0" type="curve" smooth="yes"/>
      <point x="60.0" y="515.0"/>
      <point x="114.0" y="461.0"/>
      <point x="180.0" y="461.0" type="curve" smooth="yes"/>
      <point x="246.0" y="461.0"/>
      <point x="299.0" y="515.0"/>
    </contour>
  </outline>
</glyph>
<glyph name="j" format="1">
  <advance width="488"/>
  <unicode hex="006A"/>
  <outline>
    <contour>
      <point x="221.0" y="22.0" type="curve"/>
      <point x="221.0" y="340.0" type="line"/>
      <point x="181.0" y="340.0" type="line"/>
      <point x="181.0" y="401.0" type="line"/>
      <point x="462" y="402" type="line"/>
      <point x="463.0" y="0.0" type="line" smooth="yes"/>
      <point x="463.0" y="-118.0"/>
      <point x="403.0" y="-239.0"/>
      <point x="225.0" y="-239.0" type="curve" smooth="yes"/>
      <point x="62.0" y="-239.0"/>
      <point x="15.0" y="-152.0"/>
      <point x="15.0" y="-90.0" type="curve" smooth="yes"/>
      <point x="15.0" y="-25.0"/>
      <point x="68.0" y="29.0"/>
      <point x="135.0" y="29.0" type="curve" smooth="yes"/>
      <point x="199.0" y="29.0"/>
      <point x="249.0" y="-18.0"/>
      <point x="249.0" y="-80.0" type="curve" smooth="yes"/>
      <point x="249.0" y="-137.0"/>
      <point x="198.0" y="-184.0"/>
      <point x="142.0" y="-184.0" type="curve" smooth="yes"/>
      <point x="121.0" y="-184.0"/>
      <point x="105.0" y="-178.0"/>
      <point x="105.0" y="-178.0" type="curve"/>
      <point x="105.0" y="-178.0"/>
      <point x="120.0" y="-193.0"/>
      <point x="150.0" y="-193.0" type="curve" smooth="yes"/>
      <point x="216.0" y="-193.0"/>
      <point x="270.0" y="-139.0"/>
      <point x="270.0" y="-74.0" type="curve" smooth="yes"/>
      <point x="270.0" y="-12.0"/>
      <point x="221.0" y="22.0"/>
    </contour>
    <contour>
      <point x="460.0" y="581.0" type="curve" smooth="yes"/>
      <point x="460.0" y="647.0"/>
      <point x="407.0" y="700.0"/>
      <point x="341.0" y="700.0" type="curve" smooth="yes"/>
      <point x="275.0" y="700.0"/>
      <point x="221.0" y="647.0"/>
      <point x="221.0" y="581.0" type="curve" smooth="yes"/>
      <point x="221.0" y="515.0"/>
      <point x="275.0" y="461.0"/>
      <point x="341.0" y="461.0" type="curve" smooth="yes"/>
      <point x="407.0" y="461.0"/>
      <point x="460.0" y="515.0"/>
    </contour>
  </outline>
</glyph>
<glyph name="k" format="1">
  <advance width="697"/>
  <unicode hex="006B"/>
  <outline>
    <contour>
      <point x="682.0" y="401.0" type="line"/>
      <point x="682.0" y="461.0" type="line"/>
      <point x="419.0" y="461.0" type="line"/>
      <point x="419.0" y="401.0" type="line"/>
      <point x="469" y="401" type="line"/>
      <point x="469" y="401"/>
      <point x="301.0" y="282.0"/>
      <point x="301.0" y="282.0" type="curve"/>
      <point x="301.0" y="700.0" type="line"/>
      <point x="213.0" y="700.0" type="line"/>
      <point x="213.0" y="700.0"/>
      <point x="136.0" y="640.0"/>
      <point x="10.0" y="640.0" type="curve"/>
      <point x="10.0" y="579.0" type="line"/>
      <point x="60.0" y="579.0" type="line"/>
      <point x="60.0" y="59.0" type="line"/>
      <point x="10.0" y="59.0" type="line"/>
      <point x="10.0" y="0.0" type="line"/>
      <point x="314.0" y="0.0" type="line"/>
      <point x="314.0" y="59.0" type="line"/>
      <point x="301.0" y="59.0" type="line"/>
      <point x="301.0" y="166.0" type="line"/>
      <point x="398" y="60" type="line"/>
      <point x="339.0" y="60.0" type="line"/>
      <point x="339.0" y="0.0" type="line"/>
      <point x="541.0" y="0.0" type="line"/>
      <point x="628.0" y="0.0" type="line"/>
      <point x="682.0" y="0.0" type="line"/>
      <point x="682.0" y="60.0" type="line"/>
      <point x="655" y="60" type="line"/>
      <point x="474" y="281" type="line"/>
      <point x="638" y="401" type="line"/>
    </contour>
  </outline>
</glyph>
<glyph name="l" format="1">
  <advance width="371"/>
  <unicode hex="006C"/>
  <outline>
    <contour>
      <point x="306" y="59" type="line"/>
      <point x="356" y="59" type="line"/>
      <point x="356" y="0" type="line"/>
      <point x="15" y="0" type="line"/>
      <point x="15" y="59" type="line"/>
      <point x="65" y="59" type="line"/>
      <point x="65" y="579" type="line"/>
      <point x="15" y="579" type="line"/>
      <point x="15" y="640" type="line"/>
      <point x="141" y="640"/>
      <point x="218" y="700"/>
      <point x="218" y="700" type="curve"/>
      <point x="306" y="700" type="line"/>
    </contour>
  </outline>
</glyph>
<glyph name="m" format="1">
  <advance width="879.0"/>
  <unicode hex="006D"/>
  <outline>
    <contour>
      <point x="847.0" y="59" type="line"/>
      <point x="847.0" y="263" type="line" smooth="yes"/>
      <point x="847.0" y="394"/>
      <point x="744.0" y="461"/>
      <point x="635.0" y="461" type="curve" smooth="yes"/>
      <point x="576.0" y="461"/>
      <point x="540.0" y="434"/>
      <point x="512.0" y="404" type="curve"/>
      <point x="492.0" y="442"/>
      <point x="463.0" y="461"/>
      <point x="405.0" y="461" type="curve" smooth="yes"/>
      <point x="344.0" y="461"/>
      <point x="298.0" y="432"/>
      <point x="271.0" y="401" type="curve"/>
      <point x="271.0" y="461" type="line"/>
      <point x="183.0" y="461" type="line"/>
      <point x="183.0" y="461"/>
      <point x="136.0" y="401"/>
      <point x="10.0" y="401" type="curve"/>
      <point x="10.0" y="340" type="line"/>
      <point x="60.0" y="340" type="line"/>
      <point x="60.0" y="60" type="line"/>
      <point x="10.0" y="60" type="line"/>
      <point x="10.0" y="0" type="line"/>
      <point x="284.0" y="0" type="line"/>
      <point x="284.0" y="60" type="line"/>
      <point x="271.0" y="60" type="line"/>
      <point x="271.0" y="329" type="line" smooth="yes"/>
      <point x="271.0" y="360"/>
      <point x="289.0" y="369"/>
      <point x="299.0" y="369" type="curve" smooth="yes"/>
      <point x="318.0" y="369"/>
      <point x="330.0" y="356"/>
      <point x="330.0" y="329" type="curve"/>
      <point x="331.0" y="329" type="line"/>
      <point x="331.0" y="60" type="line"/>
      <point x="318.0" y="60" type="line"/>
      <point x="318.0" y="0" type="line"/>
      <point x="549.0" y="0" type="line"/>
      <point x="549.0" y="60" type="line"/>
      <point x="536.0" y="60" type="line"/>
      <point x="536.0" y="263" type="line"/>
      <point x="536.0" y="329" type="line" smooth="yes"/>
      <point x="536.0" y="360"/>
      <point x="554.0" y="369"/>
      <point x="564.0" y="369" type="curve" smooth="yes"/>
      <point x="583.0" y="369"/>
      <point x="595.0" y="356"/>
      <point x="595.0" y="329" type="curve"/>
      <point x="596.0" y="329" type="line"/>
      <point x="596.0" y="59" type="line"/>
      <point x="582.0" y="59" type="line"/>
      <point x="582.0" y="0" type="line"/>
      <point x="869.0" y="0" type="line"/>
      <point x="869.0" y="59" type="line"/>
    </contour>
  </outline>
</glyph>
<glyph name="n" format="1">
  <advance width="701"/>
  <unicode hex="006E"/>
  <outline>
    <contour>
      <point x="635" y="61" type="line"/>
      <point x="635" y="264" type="line" smooth="yes"/>
      <point x="635" y="395"/>
      <point x="548" y="462"/>
      <point x="439" y="462" type="curve" smooth="yes"/>
      <point x="379" y="462"/>
      <point x="333" y="433"/>
      <point x="306" y="402" type="curve"/>
      <point x="306" y="462" type="line"/>
      <point x="218" y="462" type="line"/>
      <point x="218" y="462"/>
      <point x="141" y="402"/>
      <point x="15" y="402" type="curve"/>
      <point x="15" y="341" type="line"/>
      <point x="65" y="341" type="line"/>
      <point x="65" y="61" type="line"/>
      <point x="15" y="61" type="line"/>
      <point x="15" y="1" type="line"/>
      <point x="319" y="1" type="line"/>
      <point x="319" y="61" type="line"/>
      <point x="306" y="61" type="line"/>
      <point x="306" y="330" type="line" smooth="yes"/>
      <point x="306" y="361"/>
      <point x="324" y="370"/>
      <point x="334" y="370" type="curve" smooth="yes"/>
      <point x="353" y="370"/>
      <point x="365" y="357"/>
      <point x="365" y="330" type="curve"/>
      <point x="366" y="330" type="line"/>
      <point x="366" y="61" type="line"/>
      <point x="353" y="61" type="line"/>
      <point x="353" y="1" type="line"/>
      <point x="686" y="1" type="line"/>
      <point x="686" y="61" type="line"/>
    </contour>
  </outline>
</glyph>
<glyph name="o" format="1">
  <advance width="586.0"/>
  <unicode hex="006F"/>
  <outline>
    <contour>
      <point x="322.0" y="75.0" type="line" smooth="yes"/>
      <point x="322.0" y="47.0"/>
      <point x="312.0" y="34.0"/>
      <point x="293.0" y="34.0" type="curve" smooth="yes"/>
      <point x="274.0" y="34.0"/>
      <point x="263.0" y="47.0"/>
      <point x="263.0" y="74.0" type="curve" smooth="yes"/>
      <point x="263.0" y="373.0" type="line" smooth="yes"/>
      <point x="263.0" y="404.0"/>
      <point x="274.0" y="414.0"/>
      <point x="293.0" y="414.0" type="curve" smooth="yes"/>
      <point x="312.0" y="414.0"/>
      <point x="322.0" y="404.0"/>
      <point x="322.0" y="373.0" type="curve" smooth="yes"/>
    </contour>
    <contour>
      <point x="293.0" y="461.0" type="curve" smooth="yes"/>
      <point x="123.0" y="461.0"/>
      <point x="10.0" y="340.0"/>
      <point x="10.0" y="224.0" type="curve" smooth="yes"/>
      <point x="10.0" y="93.0"/>
      <point x="136.0" y="-13.0"/>
      <point x="293.0" y="-13.0" type="curve" smooth="yes"/>
      <point x="449.0" y="-13.0"/>
      <point x="576.0" y="93.0"/>
      <point x="576.0" y="224.0" type="curve" smooth="yes"/>
      <point x="576.0" y="355.0"/>
      <point x="462.0" y="461.0"/>
    </contour>
  </outline>
</glyph>
<glyph name="q" format="1">
  <advance width="650.0"/>
  <unicode hex="0071"/>
  <outline>
    <contour>
      <point x="291" y="134" type="curve" smooth="yes"/>
      <point x="291" y="313" type="line" smooth="yes"/>
      <point x="291" y="340"/>
      <point x="302" y="353"/>
      <point x="320" y="353" type="curve" smooth="yes"/>
      <point x="339" y="353"/>
      <point x="350" y="340"/>
      <point x="350" y="313" type="curve" smooth="yes"/>
      <point x="350" y="134" type="line" smooth="yes"/>
      <point x="350" y="107"/>
      <point x="339" y="94"/>
      <point x="322" y="94" type="curve" smooth="yes"/>
      <point x="303" y="94"/>
      <point x="291" y="107"/>
    </contour>
    <contour>
      <point x="216" y="461" type="curve" smooth="yes"/>
      <point x="108" y="461"/>
      <point x="20" y="354"/>
      <point x="20" y="223" type="curve" smooth="yes"/>
      <point x="20" y="92"/>
      <point x="108" y="-14"/>
      <point x="216" y="-14" type="curve" smooth="yes"/>
      <point x="277" y="-14"/>
      <point x="323" y="20"/>
      <point x="350" y="51" type="curve"/>
      <point x="350" y="-179" type="line"/>
      <point x="270" y="-179" type="line"/>
      <point x="270" y="-239" type="line"/>
      <point x="630" y="-239" type="line"/>
      <point x="630" y="-179" type="line"/>
      <point x="590" y="-179" type="line"/>
      <point x="590" y="340" type="line"/>
      <point x="630" y="340" type="line"/>
      <point x="630" y="401" type="line"/>
      <point x="503" y="401"/>
      <point x="436" y="461"/>
      <point x="436" y="461" type="curve"/>
      <point x="350" y="461" type="line"/>
      <point x="350" y="396" type="line"/>
      <point x="315" y="436"/>
      <point x="268" y="461"/>
    </contour>
  </outline>
</glyph>
<glyph name="r" format="1">
  <advance width="521.0"/>
  <unicode hex="0072"/>
  <outline>
    <contour>
      <point x="350.0" y="459.0" type="curve" smooth="yes"/>
      <point x="307.0" y="459.0"/>
      <point x="258.0" y="430.0"/>
      <point x="258.0" y="430.0" type="curve"/>
      <point x="258.0" y="460.0" type="line"/>
      <point x="216.0" y="460.0" type="line"/>
      <point x="216.0" y="460.0"/>
      <point x="138.0" y="401.0"/>
      <point x="15.0" y="401.0" type="curve"/>
      <point x="15.0" y="341.0" type="line"/>
      <point x="64.0" y="341.0" type="line"/>
      <point x="64.0" y="60.0" type="line"/>
      <point x="15.0" y="60.0" type="line"/>
      <point x="15.0" y="0.0" type="line"/>
      <point x="15.0" y="0.0"/>
      <point x="303.0" y="0.0"/>
      <point x="303.0" y="0.0" type="curve"/>
      <point x="350.0" y="0.0" type="line"/>
      <point x="350.0" y="60.0" type="line"/>
      <point x="303.0" y="60.0" type="line"/>
      <point x="303.0" y="203.0" type="line"/>
      <point x="303.0" y="203.0"/>
      <point x="258.0" y="234.0"/>
      <point x="258.0" y="296.0" type="curve" smooth="yes"/>
      <point x="258.0" y="360.0"/>
      <point x="311.0" y="414.0"/>
      <point x="377.0" y="414.0" type="curve" smooth="yes"/>
      <point x="407.0" y="414.0"/>
      <point x="422.0" y="399.0"/>
      <point x="422.0" y="399.0" type="curve"/>
      <point x="422.0" y="399.0"/>
      <point x="406.0" y="406.0"/>
      <point x="385.0" y="406.0" type="curve" smooth="yes"/>
      <point x="329.0" y="406.0"/>
      <point x="279.0" y="359.0"/>
      <point x="279.0" y="302.0" type="curve" smooth="yes"/>
      <point x="279.0" y="240.0"/>
      <point x="329.0" y="193.0"/>
      <point x="392.0" y="193.0" type="curve" smooth="yes"/>
      <point x="459.0" y="193.0"/>
      <point x="511.0" y="247.0"/>
      <point x="511.0" y="312.0" type="curve" smooth="yes"/>
      <point x="511.0" y="369.0"/>
      <point x="463.0" y="459.0"/>
    </contour>
  </outline>
</glyph>
<glyph name="s" format="1">
  <advance width="566.0"/>
  <unicode hex="0073"/>
  <outline>
    <contour>
      <point x="551.0" y="193.0" type="line"/>
      <point x="551.0" y="302.0"/>
      <point x="468.0" y="382.0"/>
      <point x="252.0" y="382.0" type="curve" smooth="yes"/>
      <point x="226.0" y="382.0"/>
      <point x="217.0" y="380.0"/>
      <point x="217.0" y="388.0" type="curve" smooth="yes"/>
      <point x="217.0" y="397.0"/>
      <point x="229.0" y="403.0"/>
      <point x="275.0" y="403.0" type="curve" smooth="yes"/>
      <point x="366.0" y="403.0"/>
      <point x="431.0" y="389.0"/>
      <point x="488.0" y="366.0" type="curve"/>
      <point x="539.0" y="365.0" type="line"/>
      <point x="539.0" y="460.0" type="line"/>
      <point x="485.0" y="460.0" type="line"/>
      <point x="485.0" y="424.0" type="line"/>
      <point x="428.0" y="458.0"/>
      <point x="365.0" y="472.0"/>
      <point x="275.0" y="472.0" type="curve" smooth="yes"/>
      <point x="97.0" y="472.0"/>
      <point x="15.0" y="390.0"/>
      <point x="15.0" y="268.0" type="curve"/>
      <point x="15.0" y="280.0" type="line"/>
      <point x="15.0" y="172.0"/>
      <point x="98.0" y="80.0"/>
      <point x="314.0" y="80.0" type="curve" smooth="yes"/>
      <point x="340.0" y="80.0"/>
      <point x="348.0" y="80.0"/>
      <point x="348.0" y="70.0" type="curve" smooth="yes"/>
      <point x="348.0" y="62.0"/>
      <point x="337.0" y="57.0"/>
      <point x="291.0" y="57.0" type="curve" smooth="yes"/>
      <point x="200.0" y="57.0"/>
      <point x="147.0" y="65.0"/>
      <point x="78.0" y="92.0" type="curve"/>
      <point x="27.0" y="93.0" type="line"/>
      <point x="27.0" y="0.0" type="line"/>
      <point x="81.0" y="0.0" type="line"/>
      <point x="81.0" y="35.0" type="line"/>
      <point x="138.0" y="1.0"/>
      <point x="201.0" y="-13.0"/>
      <point x="291.0" y="-13.0" type="curve" smooth="yes"/>
      <point x="469.0" y="-13.0"/>
      <point x="551.0" y="57.0"/>
      <point x="551.0" y="178.0" type="curve"/>
    </contour>
  </outline>
</glyph>
<glyph name="t" format="1">
  <advance width="409"/>
  <unicode hex="0074"/>
  <outline>
    <contour>
      <point x="332.0" y="112.0" type="curve"/>
      <point x="393.0" y="112.0" type="line"/>
      <point x="393.0" y="2.0"/>
      <point x="316" y="-13"/>
      <point x="211" y="-13" type="curve" smooth="yes"/>
      <point x="112" y="-13"/>
      <point x="34" y="1"/>
      <point x="34" y="111" type="curve"/>
      <point x="34.0" y="415.0" type="line"/>
      <point x="55.0" y="399.0" type="line"/>
      <point x="-15.0" y="399.0" type="line"/>
      <point x="-15.0" y="460.0" type="line"/>
      <point x="141.0" y="460.0"/>
      <point x="191.0" y="614.0"/>
      <point x="191.0" y="700.0" type="curve"/>
      <point x="273.0" y="700.0" type="line"/>
      <point x="273.0" y="447.0" type="line"/>
      <point x="263.0" y="460.0" type="line"/>
      <point x="394.0" y="460.0" type="line"/>
      <point x="394.0" y="399.0" type="line"/>
      <point x="256.0" y="399.0" type="line"/>
      <point x="273.0" y="414.0" type="line"/>
      <point x="273.0" y="414.0"/>
      <point x="273.0" y="187.0"/>
      <point x="273.0" y="115.0" type="curve" smooth="yes"/>
      <point x="273.0" y="52.0"/>
      <point x="332" y="52"/>
    </contour>
  </outline>
</glyph>
<glyph name="u" format="1">
  <advance width="696"/>
  <unicode hex="0075"/>
  <outline>
    <contour>
      <point x="631" y="62" type="line"/>
      <point x="681" y="62" type="line"/>
      <point x="681" y="1" type="line"/>
      <point x="555" y="1"/>
      <point x="478" y="1"/>
      <point x="478" y="1" type="curve"/>
      <point x="390" y="1" type="line"/>
      <point x="390" y="48" type="line"/>
      <point x="363" y="17"/>
      <point x="317" y="-12"/>
      <point x="257" y="-12" type="curve" smooth="yes"/>
      <point x="148" y="-12"/>
      <point x="61" y="55"/>
      <point x="61" y="186" type="curve" smooth="yes"/>
      <point x="61" y="402" type="line"/>
      <point x="10" y="402" type="line"/>
      <point x="10" y="462" type="line"/>
      <point x="330" y="462" type="line"/>
      <point x="330" y="120" type="line"/>
      <point x="330" y="120" type="line"/>
      <point x="330" y="93"/>
      <point x="343" y="80"/>
      <point x="362" y="80" type="curve" smooth="yes"/>
      <point x="372" y="80"/>
      <point x="390" y="90"/>
      <point x="390" y="120" type="curve" smooth="yes"/>
      <point x="390" y="402" type="line"/>
      <point x="377" y="402" type="line"/>
      <point x="377" y="462" type="line"/>
      <point x="631" y="462" type="line"/>
    </contour>
  </outline>
</glyph>
<glyph name="v" format="1">
  <advance width="612"/>
  <unicode hex="0076"/>
  <outline>
    <contour>
      <point x="-15" y="461" type="line"/>
      <point x="323" y="461" type="line"/>
      <point x="323" y="401" type="line"/>
      <point x="283" y="401" type="line"/>
      <point x="388" y="91" type="line"/>
      <point x="465" y="401" type="line"/>
      <point x="425" y="401" type="line"/>
      <point x="425" y="461" type="line"/>
      <point x="589" y="461" type="line"/>
      <point x="589" y="401" type="line"/>
      <point x="549" y="401" type="line"/>
      <point x="447" y="0" type="line"/>
      <point x="174" y="0" type="line"/>
      <point x="14" y="403" type="line"/>
      <point x="-15" y="403" type="line"/>
    </contour>
  </outline>
</glyph>
<glyph name="w" format="1">
  <advance width="862"/>
  <unicode hex="0077"/>
  <outline>
    <contour>
      <point x="677.0" y="461.0" type="line"/>
      <point x="677.0" y="401.0" type="line"/>
      <point x="732.0" y="401.0" type="line"/>
      <point x="654" y="114" type="line"/>
      <point x="570.0" y="401.0" type="line"/>
      <point x="623.0" y="401.0" type="line"/>
      <point x="623.0" y="461.0" type="line"/>
      <point x="344.0" y="461.0" type="line"/>
      <point x="344.0" y="401.0" type="line"/>
      <point x="365.0" y="401.0" type="line"/>
      <point x="396.0" y="312.0" type="line"/>
      <point x="331" y="113" type="line"/>
      <point x="240.0" y="401.0" type="line"/>
      <point x="288.0" y="401.0" type="line"/>
      <point x="288.0" y="461.0" type="line"/>
      <point x="10.0" y="461.0" type="line"/>
      <point x="10.0" y="403.0" type="line"/>
      <point x="35.0" y="403.0" type="line"/>
      <point x="177.0" y="0.0" type="line"/>
      <point x="363.0" y="0.0" type="line"/>
      <point x="431.0" y="214.0" type="line"/>
      <point x="506.0" y="0.0" type="line"/>
      <point x="687.0" y="0.0" type="line"/>
      <point x="804.0" y="401.0" type="line"/>
      <point x="852.0" y="401.0" type="line"/>
      <point x="852.0" y="461.0" type="line"/>
    </contour>
  </outline>
</glyph>
<glyph name="x" format="1">
  <advance width="645.0"/>
  <unicode hex="0078"/>
  <outline>
    <contour>
      <point x="638" y="401" type="curve"/>
      <point x="638" y="461" type="line"/>
      <point x="464" y="461" type="line"/>
      <point x="464" y="401" type="line"/>
      <point x="464" y="401"/>
      <point x="513" y="401"/>
      <point x="513" y="401" type="curve"/>
      <point x="408" y="296" type="line"/>
      <point x="319" y="401" type="line"/>
      <point x="358" y="401" type="line"/>
      <point x="358" y="461" type="line"/>
      <point x="8" y="461" type="line"/>
      <point x="8" y="401" type="line"/>
      <point x="49" y="401" type="line"/>
      <point x="205" y="217" type="line"/>
      <point x="49" y="60" type="line"/>
      <point x="49" y="60" type="line"/>
      <point x="8" y="60" type="line"/>
      <point x="8" y="0" type="line"/>
      <point x="179" y="0" type="line"/>
      <point x="179" y="60" type="line"/>
      <point x="179" y="60"/>
      <point x="133" y="60"/>
      <point x="133" y="60" type="curve"/>
      <point x="244" y="171" type="line"/>
      <point x="339" y="60" type="line"/>
      <point x="288" y="60" type="line"/>
      <point x="288" y="0" type="line"/>
      <point x="638" y="0" type="line"/>
      <point x="638" y="60" type="line"/>
      <point x="609" y="60" type="line"/>
      <point x="447" y="250" type="line"/>
      <point x="597" y="401" type="line"/>
      <point x="597" y="401"/>
      <point x="638" y="401"/>
    </contour>
  </outline>
</glyph>
<glyph name="y" format="1">
  <advance width="672.0"/>
  <unicode hex="0079"/>
  <outline>
    <contour>
      <point x="251.0" y="0.0" type="move"/>
      <point x="251.0" y="0.0"/>
      <point x="323.0" y="-48.0"/>
      <point x="322.0" y="-134.0" type="curve" smooth="yes"/>
      <point x="321.0" y="-199.0"/>
      <point x="268.0" y="-253.0"/>
      <point x="202.0" y="-253.0" type="curve" smooth="yes"/>
      <point x="172.0" y="-253.0"/>
      <point x="157.0" y="-238.0"/>
      <point x="157.0" y="-238.0" type="curve"/>
      <point x="157.0" y="-238.0"/>
      <point x="173.0" y="-244.0"/>
      <point x="194.0" y="-244.0" type="curve" smooth="yes"/>
      <point x="250.0" y="-244.0"/>
      <point x="301.0" y="-197.0"/>
      <point x="301.0" y="-140.0" type="curve" smooth="yes"/>
      <point x="301.0" y="-78.0"/>
      <point x="250.0" y="-31.0"/>
      <point x="187.0" y="-31.0" type="curve" smooth="yes"/>
      <point x="119.0" y="-31.0"/>
      <point x="67.0" y="-85.0"/>
      <point x="67.0" y="-150.0" type="curve" smooth="yes"/>
      <point x="67.0" y="-212.0"/>
      <point x="99.0" y="-298.0"/>
      <point x="243.0" y="-298.0" type="curve" smooth="yes"/>
      <point x="303.0" y="-298.0"/>
      <point x="401.0" y="-259.0"/>
      <point x="429.0" y="-164.0" type="curve" smooth="yes"/>
      <point x="477.0" y="0.0" type="line"/>
      <point x="593.0" y="401.0" type="line"/>
      <point x="633" y="401" type="line"/>
      <point x="633" y="461" type="line"/>
      <point x="486" y="461" type="line"/>
      <point x="486" y="401" type="line"/>
      <point x="526.0" y="401.0" type="line"/>
      <point x="435.0" y="91.0" type="line"/>
      <point x="338.0" y="401.0" type="line"/>
      <point x="378" y="401" type="line"/>
      <point x="378" y="461" type="line"/>
      <point x="15.0" y="461.0" type="line"/>
      <point x="15.0" y="403.0" type="line"/>
      <point x="44.0" y="403.0" type="line"/>
      <point x="204.0" y="0.0" type="line"/>
    </contour>
  </outline>
</glyph>
<glyph name="z" format="1">
  <advance width="536.0"/>
  <unicode hex="007A"/>
  <outline>
    <contour>
      <point x="380.0" y="60.0" type="curve" smooth="yes"/>
      <point x="292.0" y="60.0" type="line"/>
      <point x="526.0" y="401.0" type="line"/>
      <point x="526.0" y="401.0" type="line"/>
      <point x="526.0" y="461.0" type="line"/>
      <point x="11.0" y="461.0" type="line"/>
      <point x="11.0" y="253.0" type="line"/>
      <point x="63.0" y="253.0" type="line"/>
      <point x="63.0" y="310.0"/>
      <point x="131.0" y="401.0"/>
      <point x="157.0" y="401.0" type="curve" smooth="yes"/>
      <point x="241.0" y="401.0" type="line"/>
      <point x="10.0" y="60.0" type="line"/>
      <point x="10.0" y="0.0" type="line"/>
      <point x="10.0" y="0.0"/>
      <point x="481.0" y="0.0"/>
      <point x="481.0" y="0.0" type="curve"/>
      <point x="526.0" y="0.0" type="line"/>
      <point x="526.0" y="60.0" type="line"/>
      <point x="526.0" y="207.0" type="line"/>
      <point x="474.0" y="207.0" type="line"/>
      <point x="474.0" y="146.0"/>
      <point x="404.0" y="60.0"/>
    </contour>
  </outline>
</glyph>
<glyph name="endash" format="1">
  <advance width="353"/>
  <unicode hex="2013"/>
  <outline>
    <contour>
      <point x="15" y="285" type="line"/>
      <point x="338" y="285" type="line"/>
      <point x="338" y="225" type="line"/>
      <point x="15" y="225" type="line"/>
    </contour>
  </outline>
</glyph>
<glyph name="emdash" format="1">
  <advance width="701"/>
  <unicode hex="2014"/>
  <outline>
    <contour>
      <point x="15.0" y="285.0" type="line"/>
      <point x="686.0" y="285.0" type="line"/>
      <point x="686.0" y="225.0" type="line"/>
      <point x="15.0" y="225.0" type="line"/>
    </contour>
  </outline>
</glyph>
<glyph name="quoteright" format="1">
  <advance width="180"/>
  <unicode hex="2019"/>
  <outline>
    <contour>
      <point x="170" y="605" type="curve" smooth="yes"/>
      <point x="170" y="656"/>
      <point x="129" y="698"/>
      <point x="78" y="698" type="curve" smooth="yes"/>
      <point x="26" y="698"/>
      <point x="-15" y="655"/>
      <point x="-15" y="604" type="curve" smooth="yes"/>
      <point x="-15" y="564"/>
      <point x="10" y="531"/>
      <point x="45" y="516" type="curve"/>
      <point x="45" y="516" type="line"/>
      <point x="45" y="500"/>
      <point x="20" y="473"/>
      <point x="-15" y="471" type="curve" smooth="yes"/>
      <point x="-15" y="471"/>
      <point x="-15" y="435"/>
      <point x="-15" y="435" type="curve"/>
      <point x="97" y="435"/>
      <point x="170" y="518"/>
      <point x="170" y="605" type="curve"/>
      <point x="170" y="605"/>
      <point x="170" y="605"/>
    </contour>
  </outline>
</glyph>
<glyph name="fi" format="1">
  <advance width="678.0"/>
  <outline>
    <contour>
      <point x="613.0" y="460.0" type="line"/>
      <point x="522.0" y="460.0" type="line"/>
      <point x="522.0" y="460.0"/>
      <point x="414.0" y="360.0"/>
      <point x="301.0" y="441.0" type="curve"/>
      <point x="301.0" y="340.0" type="line"/>
      <point x="372.0" y="340.0" type="line"/>
      <point x="372.0" y="60.0" type="line"/>
      <point x="322.0" y="60.0" type="line"/>
      <point x="322.0" y="0.0" type="line"/>
      <point x="663.0" y="0.0" type="line"/>
      <point x="663.0" y="60.0" type="line"/>
      <point x="613.0" y="60.0" type="line"/>
    </contour>
    <contour>
      <point x="301" y="700" type="curve" smooth="yes"/>
      <point x="123" y="700"/>
      <point x="63" y="571"/>
      <point x="63" y="400" type="curve"/>
      <point x="14" y="400" type="line"/>
      <point x="14" y="339" type="line"/>
      <point x="64" y="339" type="line"/>
      <point x="64" y="61" type="line"/>
      <point x="14" y="61" type="line"/>
      <point x="14" y="0" type="line"/>
      <point x="63" y="0" type="line"/>
      <point x="302" y="0" type="line"/>
      <point x="362" y="0" type="line"/>
      <point x="362" y="60" type="line"/>
      <point x="301" y="60" type="line"/>
      <point x="301" y="441" type="line"/>
      <point x="301" y="441"/>
      <point x="256" y="473"/>
      <point x="256" y="534" type="curve" smooth="yes"/>
      <point x="256" y="599"/>
      <point x="310" y="653"/>
      <point x="376" y="653" type="curve" smooth="yes"/>
      <point x="406" y="653"/>
      <point x="421" y="639"/>
      <point x="421" y="639" type="curve"/>
      <point x="421" y="639"/>
      <point x="405" y="645"/>
      <point x="384" y="645" type="curve" smooth="yes"/>
      <point x="328" y="645"/>
      <point x="277" y="597"/>
      <point x="277" y="540" type="curve" smooth="yes"/>
      <point x="277" y="478"/>
      <point x="327" y="431"/>
      <point x="391" y="431" type="curve" smooth="yes"/>
      <point x="458" y="431"/>
      <point x="511" y="485"/>
      <point x="511" y="550" type="curve" smooth="yes"/>
      <point x="511" y="612"/>
      <point x="464" y="700"/>
    </contour>
  </outline>
</glyph>
